<svg id="Layer_1" data-name="Layer 1" xmlns="http://www.w3.org/2000/svg" viewBox="0 0 396.16069 201.89867"><path style="fill:#00c261;" d="M166.6,42.73484l-71.8498,41.4825a17.94941,17.94941,0,0,0-6.58611,6.5959l31.32129,18.08338,56.12633-32.40449,56.10968,32.3949,31.2835-18.06151a17.94942,17.94942,0,0,0-6.59264-6.6082L184.56241,42.73484A17.9624,17.9624,0,0,0,166.6,42.73484Z" transform="translate(-85.74005 -40.32833)"/><path style="fill:#05af4a;" d="M265.41238,182.7771l.00009-82.965a17.94944,17.94944,0,0,0-2.41915-9.00169L231.672,108.89372l-.00012,64.80907-56.10968,32.3949-.00006,36.12306a17.94935,17.94935,0,0,0,9.01919-2.40529L256.43115,198.333A17.9624,17.9624,0,0,0,265.41238,182.7771Z" transform="translate(-85.74005 -40.32833)"/><path style="fill:#049642;" d="M94.72125,198.33862,166.571,239.82119a17.94938,17.94938,0,0,0,9.00528,2.40579l0-36.16672-56.12625-32.40463,0-64.78986L88.16665,90.8042a17.94944,17.94944,0,0,0-2.42656,9.01349l0,82.965A17.96239,17.96239,0,0,0,94.72125,198.33862Z" transform="translate(-85.74005 -40.32833)"/><path style="fill:#0d0d0d;" d="M333.27611,107.49213h20.45924L331.5638,175.1623h-21.523l-22.07836-67.67017H308.513l9.21109,34.298q2.86921,11.43313,3.14786,15.92242.32336-3.23917,1.29624-8.10029.97146-4.85947,1.71231-7.63715Z" transform="translate(-85.74005 -40.32833)"/><path style="fill:#0d0d0d;" d="M418.582,107.49213v40.73163q0,13.285-7.52137,20.57409-7.52184,7.29027-21.68488,7.29027-13.84062,0-21.2688-7.08176-7.42864-7.082-7.42911-20.366V107.49213h18.376V147.2057q0,7.17447,2.68472,10.41412,2.68425,3.24059,7.91485,3.24012,5.60007,0,8.12289-3.21706,2.52328-3.21658,2.52281-10.52991V107.49213Z" transform="translate(-85.74005 -40.32833)"/><path style="fill:#0d0d0d;" d="M481.90074,129.0151q0,11.34064-6.68827,17.51941-6.68875,6.179-19.00016,6.179h-5.13787V175.1623H432.79159V107.49213h23.42072q12.81974,0,19.25526,5.60055Q481.90074,118.69346,481.90074,129.0151Zm-30.8263,8.79454h3.33237a9.10358,9.10358,0,0,0,6.54989-2.31431,8.3999,8.3999,0,0,0,2.42962-6.38751q0-6.84972-7.591-6.85065h-4.72085Z" transform="translate(-85.74005 -40.32833)"/><polygon style="fill:#0d0d0d;" points="89.822 33.577 31.444 67.282 31.444 134.691 89.822 168.395 148.2 134.691 148.2 67.282 89.822 33.577"/><rect style="fill:#00c261;" x="70.99144" y="96.23097" width="37.65128" height="31.04579" rx="3.84485"/><path style="fill:#00c261;" d="M188.7163,170.03992H162.40791a10.85814,10.85814,0,0,1-10.84578-10.8458V140.43733a10.85814,10.85814,0,0,1,10.84579-10.8458h26.30841a10.85816,10.85816,0,0,1,10.8458,10.8458v18.75679A10.85815,10.85815,0,0,1,188.7163,170.03992Zm-26.30839-32.90349a3.30465,3.30465,0,0,0-3.3009,3.3009v18.75679a3.30465,3.30465,0,0,0,3.3009,3.30089H188.7163a3.30469,3.30469,0,0,0,3.30089-3.30089V140.43733a3.30465,3.30465,0,0,0-3.30089-3.3009Z" transform="translate(-85.74005 -40.32833)"/><path style="fill:#00c261;" d="M190.39094,130.39719H182.846V122.4977a7.0234,7.0234,0,0,0-7.01555-7.01555H175.291a7.0234,7.0234,0,0,0-7.01555,7.01555v7.89949h-7.5449V122.4977A14.577,14.577,0,0,1,175.291,107.93725h.53948a14.57694,14.57694,0,0,1,14.56046,14.56045Z" transform="translate(-85.74005 -40.32833)"/><rect style="fill:#0d0d0d;" x="86.61892" y="102.30188" width="6.40627" height="14.14669"/></svg>